<svg width="500" height="500" viewBox="0 0 500 500" fill="none" xmlns="http://www.w3.org/2000/svg">
<g clip-path="url(#clip0_4_9)">
<rect width="500" height="500" rx="32" fill="white"/>
<path d="M63.1178 459.086C55.3476 459.086 50.1027 456.561 47.3831 451.51C45.0521 446.46 43.8865 440.438 43.8865 433.445C44.275 426.063 44.4693 419.264 44.4693 413.048C44.4693 373.808 48.3544 335.152 56.1246 297.078C63.8948 259.004 73.0248 221.124 83.5145 183.438C84.2916 181.107 85.6514 176.834 87.5939 170.618C89.5364 164.013 91.6733 157.02 94.0043 149.638C96.3354 142.256 98.4722 135.457 100.415 129.241C102.746 123.025 104.3 118.751 105.077 116.42C109.35 103.211 114.401 93.6926 120.229 87.865C126.056 81.6488 134.409 78.5407 145.288 78.5407C155 78.5407 163.159 82.0373 169.764 89.0305C176.757 95.6352 182.39 103.794 186.664 113.507C191.326 122.831 195.017 131.767 197.736 140.314C204.341 160.516 211.14 181.107 218.133 202.087C225.126 222.678 231.731 243.075 237.947 263.277C241.055 273.378 245.329 278.429 250.768 278.429C257.761 278.429 264.366 270.076 270.582 253.37C273.69 244.823 277.381 234.527 281.655 222.484C286.317 210.051 290.979 197.619 295.641 185.187C300.303 172.366 304.382 160.905 307.879 150.804C311.764 140.702 314.484 133.515 316.038 129.241C322.254 113.312 329.053 100.492 336.434 90.7788C344.205 80.6775 355.083 75.6269 369.069 75.6269C379.559 75.6269 388.106 79.3177 394.711 86.6994C401.316 93.6926 406.755 102.434 411.028 112.924C415.302 123.025 418.799 132.932 421.518 142.645C432.008 182.273 439.972 222.484 445.412 263.277C451.239 304.071 454.153 344.67 454.153 385.075V407.803C452.599 412.853 450.462 416.156 447.743 417.71C445.023 418.875 440.167 419.458 433.173 419.458C423.461 419.458 416.468 413.048 412.194 400.227C409.863 393.234 408.309 386.046 407.532 378.665C406.755 371.283 405.978 363.901 405.201 356.52C401.316 316.892 397.819 285.228 394.711 261.529C391.991 237.441 389.466 218.793 387.135 205.583C385.192 192.374 383.444 182.273 381.89 175.28C380.336 167.898 378.782 161.099 377.228 154.883C376.063 147.89 372.76 144.393 367.321 144.393C361.493 144.393 356.831 147.89 353.335 154.883C351.004 161.876 347.507 171.977 342.845 185.187C338.571 198.396 333.715 212.382 328.276 227.146C322.837 241.909 317.98 255.313 313.707 267.357C309.433 279.4 306.519 287.753 304.965 292.415C303.023 297.466 300.303 304.459 296.806 313.395C293.31 321.942 289.036 330.489 283.986 339.037C279.324 347.584 273.884 354.966 267.668 361.182C261.841 367.009 255.624 369.923 249.02 369.923C242.804 369.923 237.17 367.398 232.12 362.347C227.069 356.908 222.795 350.692 219.299 343.699C216.191 336.706 213.665 330.878 211.723 326.216L163.353 183.438C162.965 181.496 162.188 178.776 161.022 175.28C159.857 171.395 157.914 167.898 155.195 164.79C152.864 161.293 149.367 159.545 144.705 159.545C140.431 159.545 136.935 161.488 134.215 165.373C131.884 169.258 130.136 173.726 128.97 178.776C127.805 183.827 127.028 187.906 126.639 191.014C125.862 194.899 124.697 199.95 123.143 206.166C121.589 211.994 120.034 218.21 118.48 224.815C116.926 230.642 115.567 236.276 114.401 241.715C113.624 246.766 112.847 250.651 112.07 253.37C111.682 256.09 110.71 260.946 109.156 267.939C107.991 274.932 106.825 282.314 105.66 290.084C102.552 310.287 99.6377 330.101 96.9181 349.526C94.5871 368.563 92.256 389.349 89.925 411.882C89.5365 418.487 88.5652 425.48 87.0111 432.862C85.4571 440.243 82.7375 446.46 78.8524 451.51C75.3558 456.561 70.111 459.086 63.1178 459.086Z" fill="black"/>
</g>
<defs>
<clipPath id="clip0_4_9">
<rect width="500" height="500" rx="32" fill="white"/>
</clipPath>
</defs>
</svg>
